<svg xmlns="http://www.w3.org/2000/svg" viewBox="0 0 512 512">
  <rect width="512" height="512" rx="115" fill="#1e293b"/>
  <!-- Spider web background -->
  <polygon points="256,60 430,160 430,352 256,452 82,352 82,160" fill="none" stroke="#334155" stroke-width="8"/>
  <polygon points="256,120 370,190 370,320 256,390 142,320 142,190" fill="none" stroke="#475569" stroke-width="8"/>
  <!-- Lines from center -->
  <line x1="256" y1="256" x2="256" y2="60" stroke="#334155" stroke-width="8"/>
  <line x1="256" y1="256" x2="430" y2="160" stroke="#334155" stroke-width="8"/>
  <line x1="256" y1="256" x2="430" y2="352" stroke="#334155" stroke-width="8"/>
  <line x1="256" y1="256" x2="256" y2="452" stroke="#334155" stroke-width="8"/>
  <line x1="256" y1="256" x2="82" y2="352" stroke="#334155" stroke-width="8"/>
  <line x1="256" y1="256" x2="82" y2="160" stroke="#334155" stroke-width="8"/>
  <!-- Letter P forming on the nodes -->
  <path d="M 180 140 L 320 140 C 380 140 380 260 320 260 L 240 260 L 240 380" fill="none" stroke="#0ea5e9" stroke-width="45" stroke-linecap="round" stroke-linejoin="round"/>
</svg>
